<?xml version="1.0" encoding="utf-8"?>
<!-- Generator: Adobe Illustrator 24.2.0, SVG Export Plug-In . SVG Version: 6.00 Build 0)  -->
<svg version="1.1" id="Layer_1" xmlns="http://www.w3.org/2000/svg" xmlns:xlink="http://www.w3.org/1999/xlink" x="0px" y="0px"
	 viewBox="0 0 1920 1080" style="enable-background:new 0 0 1920 1080;" xml:space="preserve">
<style type="text/css">
	.st0{fill:#3562FF;}
</style>
<path class="st0" d="M547.4,651.4V511.4h-34v-39.5h34v-12.2c0-48.7,32.9-71.3,69.4-71.3c15.9,0,32.5,5.2,47.3,14.8l-16.6,33.6
	c-9.6-6.3-18.5-9.6-27.7-9.6c-15.5,0-27.3,10.3-27.3,32.5v12.2H646v39.5h-53.5v139.9H547.4z"/>
<path class="st0" d="M726.9,418c0,35.1-53.2,35.1-53.2,0C673.7,382.9,726.9,382.9,726.9,418z M677.7,468.6v182.8h45V468.6H677.7z"/>
<path class="st0" d="M826.9,418v51.7h50.2v38.8h-50.6v78.6c0,17.4,9.6,25.8,23.6,25.8c7,0,15.1-2.2,21.8-5.5l12.5,38.4
	c-12.9,5.2-23.6,7.4-37.3,7.8c-39.5,1.5-65.3-21.1-65.3-66.5v-78.6h-34v-38.8h34v-46.9L826.9,418z"/>
<path class="st0" d="M910.7,727.4V469.3h42.1l3,25.1c14-20.3,38.4-29.2,59.1-29.2c56.1,0,93.4,41.7,93.4,95.3
	c0,53.2-33.6,95.2-91.9,95.2c-19.2,0-47.6-5.9-60.5-25.8v97.5H910.7z M1063.2,560.5c0-28.4-19.2-51.7-51.7-51.7
	c-32.5,0-51.7,23.3-51.7,51.7c0,28.4,21,51.7,51.7,51.7C1042.1,612.2,1063.2,589,1063.2,560.5z"/>
<path class="st0" d="M1254.8,576.4c3,22.5,22.5,38.8,54.3,38.8c16.6,0,38.4-6.3,48.7-17l28.8,28.4c-19.2,19.9-50.6,29.5-78.3,29.5
	c-62.8,0-100.1-38.8-100.1-97.1c0-55.4,37.7-95.3,96.7-95.3c60.9,0,98.9,37.7,91.9,112.6H1254.8z M1353.7,539.1
	c-3-23.6-21.4-35.4-47.3-35.4c-24.4,0-44.3,11.8-50.9,35.4H1353.7z"/>
<rect x="513.6" y="688.6" class="st0" width="363.6" height="38.8"/>
<polygon class="st0" points="1176.9,393.3 1132.2,398.1 1132.2,651.4 1176.9,651.4 "/>
</svg>
